<svg xmlns="http://www.w3.org/2000/svg" viewBox="0 0 192 192">
  <rect width="192" height="192" rx="32" fill="#121212"/>
  <rect x="20" y="20" width="152" height="52" rx="10" fill="#1e1e1e"/>
  <text x="162" y="62" font-size="36" text-anchor="end" fill="#ffffff" font-family="monospace" font-weight="300">0</text>
  <rect x="20" y="84"  width="34" height="24" rx="6" fill="#1e1e1e"/>
  <rect x="62" y="84"  width="34" height="24" rx="6" fill="#1e1e1e"/>
  <rect x="104" y="84" width="34" height="24" rx="6" fill="#1e1e1e"/>
  <rect x="146" y="84" width="26" height="24" rx="6" fill="#b05a00"/>
  <rect x="20"  y="116" width="34" height="24" rx="6" fill="#2c2c2c"/>
  <rect x="62"  y="116" width="34" height="24" rx="6" fill="#2c2c2c"/>
  <rect x="104" y="116" width="34" height="24" rx="6" fill="#2c2c2c"/>
  <rect x="146" y="116" width="26" height="24" rx="6" fill="#b05a00"/>
  <rect x="20"  y="148" width="34" height="24" rx="6" fill="#2c2c2c"/>
  <rect x="62"  y="148" width="76" height="24" rx="6" fill="#2c2c2c"/>
  <rect x="146" y="116" width="26" height="56" rx="6" fill="#c66000"/>
</svg>
